<svg width="20" height="20" viewBox="0 0 20 20" fill="none" xmlns="http://www.w3.org/2000/svg">
<g clip-path="url(#clip0_3052_1317)">
<path d="M5.83333 6.66732V5.00065C5.83333 3.89558 6.27232 2.83577 7.05372 2.05437C7.83512 1.27297 8.89493 0.833984 10 0.833984C11.1051 0.833984 12.1649 1.27297 12.9463 2.05437C13.7277 2.83577 14.1667 3.89558 14.1667 5.00065V6.66732H16.6667C16.8877 6.66732 17.0996 6.75512 17.2559 6.9114C17.4122 7.06768 17.5 7.27964 17.5 7.50065V17.5007C17.5 17.7217 17.4122 17.9336 17.2559 18.0899C17.0996 18.2462 16.8877 18.334 16.6667 18.334H3.33333C3.11232 18.334 2.90036 18.2462 2.74408 18.0899C2.5878 17.9336 2.5 17.7217 2.5 17.5007V7.50065C2.5 7.27964 2.5878 7.06768 2.74408 6.9114C2.90036 6.75512 3.11232 6.66732 3.33333 6.66732H5.83333ZM5.83333 8.33398H4.16667V16.6673H15.8333V8.33398H14.1667V10.0007H12.5V8.33398H7.5V10.0007H5.83333V8.33398ZM7.5 6.66732H12.5V5.00065C12.5 4.33761 12.2366 3.70173 11.7678 3.23288C11.2989 2.76404 10.663 2.50065 10 2.50065C9.33696 2.50065 8.70107 2.76404 8.23223 3.23288C7.76339 3.70173 7.5 4.33761 7.5 5.00065V6.66732Z" fill="#1E1E1E"/>
</g>
<defs>
<clipPath id="clip0_3052_1317">
<rect width="20" height="20" fill="white"/>
</clipPath>
</defs>
</svg>
