<svg width="33" height="32" viewBox="0 0 33 32" fill="none" xmlns="http://www.w3.org/2000/svg">
<rect x="0.5" width="32" height="32" rx="16" fill="#E968FE"/>
<g clip-path="url(#clip0_2964_22260)">
<path d="M20.4134 8.17383C23.0551 8.17383 25.196 10.3477 25.196 13.3912C25.196 19.4782 18.6743 22.9564 16.5003 24.2608C14.3264 22.9564 7.80469 19.4782 7.80469 13.3912C7.80469 10.3477 9.9786 8.17383 12.5873 8.17383C14.2047 8.17383 15.6308 9.04339 16.5003 9.91296C17.3699 9.04339 18.796 8.17383 20.4134 8.17383ZM17.3125 21.7425C18.0786 21.259 18.7699 20.7782 19.4169 20.2634C22.009 18.2025 23.4569 15.9503 23.4569 13.3912C23.4569 11.339 22.1203 9.91296 20.4134 9.91296C19.4777 9.91296 18.4656 10.4086 17.7299 11.1425L16.5003 12.3721L15.2708 11.1425C14.5351 10.4086 13.5229 9.91296 12.5873 9.91296C10.9003 9.91296 9.54382 11.353 9.54382 13.3912C9.54382 15.9512 10.9925 18.2025 13.5829 20.2634C14.2308 20.7782 14.9221 21.259 15.6882 21.7417C15.9482 21.906 16.2056 22.0634 16.5003 22.239C16.7951 22.0634 17.0525 21.906 17.3125 21.7425V21.7425Z" fill="#F1F1F1"/>
</g>
<defs>
<clipPath id="clip0_2964_22260">
<rect width="20.8696" height="20.8696" fill="white" transform="translate(6.06543 5.56445)"/>
</clipPath>
</defs>
</svg>
