<svg width="33" height="32" viewBox="0 0 33 32" fill="none" xmlns="http://www.w3.org/2000/svg">
<rect x="0.5" width="32" height="32" rx="16" fill="#E968FE"/>
<g clip-path="url(#clip0_2964_22282)">
<path d="M13.8607 21.2165C13.7573 21.9419 13.3956 22.6057 12.8421 23.086C12.2886 23.5662 11.5804 23.8306 10.8476 23.8306C10.1148 23.8306 9.40662 23.5662 8.85311 23.086C8.2996 22.6057 7.93794 21.9419 7.83457 21.2165H6.93457V10.7817C6.93457 10.5511 7.02618 10.3299 7.18926 10.1668C7.35234 10.0037 7.57351 9.91211 7.80414 9.91211H19.978C20.2087 9.91211 20.4298 10.0037 20.5929 10.1668C20.756 10.3299 20.8476 10.5511 20.8476 10.7817V12.5208H23.4563L26.065 16.0478V21.2165H24.2954C24.1921 21.9419 23.8304 22.6057 23.2769 23.086C22.7234 23.5662 22.0152 23.8306 21.2824 23.8306C20.5496 23.8306 19.8414 23.5662 19.2879 23.086C18.7344 22.6057 18.3727 21.9419 18.2694 21.2165H13.8607ZM19.1085 11.6512H8.6737V18.6512C9.0168 18.301 9.43944 18.0388 9.90566 17.887C10.3719 17.7352 10.8679 17.6983 11.3514 17.7794C11.835 17.8605 12.2918 18.0573 12.6829 18.3529C13.0741 18.6485 13.388 19.0343 13.598 19.4773H18.532C18.678 19.1704 18.8737 18.8912 19.1085 18.6512V11.6512ZM20.8476 16.8686H24.3259V16.6208L22.5798 14.2599H20.8476V16.8686ZM21.2824 22.086C21.6284 22.086 21.9603 21.9486 22.205 21.7039C22.4497 21.4592 22.5872 21.1273 22.5872 20.7812C22.5872 20.4352 22.4497 20.1033 22.205 19.8586C21.9603 19.6139 21.6284 19.4765 21.2824 19.4765C20.9363 19.4765 20.6045 19.6139 20.3598 19.8586C20.1151 20.1033 19.9776 20.4352 19.9776 20.7812C19.9776 21.1273 20.1151 21.4592 20.3598 21.7039C20.6045 21.9486 20.9363 22.086 21.2824 22.086ZM12.152 20.7817C12.152 20.6104 12.1182 20.4408 12.0527 20.2825C11.9871 20.1243 11.891 19.9805 11.7699 19.8594C11.6488 19.7382 11.505 19.6422 11.3468 19.5766C11.1885 19.5111 11.0189 19.4773 10.8476 19.4773C10.6763 19.4773 10.5067 19.5111 10.3485 19.5766C10.1902 19.6422 10.0464 19.7382 9.9253 19.8594C9.80418 19.9805 9.7081 20.1243 9.64255 20.2825C9.577 20.4408 9.54327 20.6104 9.54327 20.7817C9.54327 21.1276 9.68069 21.4594 9.9253 21.704C10.1699 21.9486 10.5017 22.086 10.8476 22.086C11.1935 22.086 11.5253 21.9486 11.7699 21.704C12.0145 21.4594 12.152 21.1276 12.152 20.7817Z" fill="#F1F1F1"/>
</g>
<defs>
<clipPath id="clip0_2964_22282">
<rect width="20.8696" height="20.8696" fill="white" transform="translate(6.06543 5.56445)"/>
</clipPath>
</defs>
</svg>
