<svg width="14" height="15" viewBox="0 0 14 15" fill="none" xmlns="http://www.w3.org/2000/svg">
<g clip-path="url(#clip0_3215_551)">
<path d="M9.91602 2.25065H12.2493C12.4041 2.25065 12.5524 2.31211 12.6618 2.42151C12.7712 2.5309 12.8327 2.67927 12.8327 2.83398V12.1673C12.8327 12.322 12.7712 12.4704 12.6618 12.5798C12.5524 12.6892 12.4041 12.7507 12.2493 12.7507H1.74935C1.59464 12.7507 1.44627 12.6892 1.33687 12.5798C1.22747 12.4704 1.16602 12.322 1.16602 12.1673V2.83398C1.16602 2.67927 1.22747 2.5309 1.33687 2.42151C1.44627 2.31211 1.59464 2.25065 1.74935 2.25065H4.08268V1.08398H5.24935V2.25065H8.74935V1.08398H9.91602V2.25065ZM11.666 6.91732H2.33268V11.584H11.666V6.91732ZM8.74935 3.41732H5.24935V4.58398H4.08268V3.41732H2.33268V5.75065H11.666V3.41732H9.91602V4.58398H8.74935V3.41732ZM3.49935 8.08398H4.66602V9.25065H3.49935V8.08398ZM6.41602 8.08398H7.58268V9.25065H6.41602V8.08398ZM9.33268 8.08398H10.4993V9.25065H9.33268V8.08398Z" fill="#1E1E1E"/>
</g>
<defs>
<clipPath id="clip0_3215_551">
<rect width="14" height="14" fill="white" transform="translate(0 0.5)"/>
</clipPath>
</defs>
</svg>
