<svg width="40" height="40" viewBox="0 0 40 40" fill="none" xmlns="http://www.w3.org/2000/svg">
<rect width="40" height="40" rx="20" fill="#1E1E1E"/>
<path d="M17.6079 23.16C17.3546 23.8933 16.9746 24.5267 16.4679 25.06C15.9746 25.5933 15.3746 26 14.6679 26.28C13.9746 26.56 13.1946 26.7 12.3279 26.7C11.1279 26.7 10.0746 26.4267 9.16789 25.88C8.27456 25.32 7.57456 24.5333 7.06789 23.52C6.57456 22.5067 6.32789 21.3 6.32789 19.9C6.32789 18.5 6.57456 17.2933 7.06789 16.28C7.56122 15.2667 8.25456 14.4867 9.14789 13.94C10.0546 13.38 11.1079 13.1 12.3079 13.1C13.2012 13.1 13.9812 13.2267 14.6479 13.48C15.3279 13.72 15.9012 14.0867 16.3679 14.58C16.8346 15.06 17.1879 15.6533 17.4279 16.36L16.4479 16.82C16.1412 15.9 15.6546 15.2067 14.9879 14.74C14.3212 14.26 13.4479 14.02 12.3679 14.02C11.3812 14.02 10.5079 14.26 9.74789 14.74C9.00122 15.2067 8.42122 15.88 8.00789 16.76C7.59456 17.6267 7.38789 18.6733 7.38789 19.9C7.38789 21.1133 7.58789 22.16 7.98789 23.04C8.40122 23.92 8.98122 24.6 9.72789 25.08C10.4746 25.5467 11.3412 25.78 12.3279 25.78C13.3946 25.78 14.3012 25.5267 15.0479 25.02C15.7946 24.5 16.3146 23.7533 16.6079 22.78L17.6079 23.16ZM32.8268 13.3V26.5H31.8668V16.66L31.9868 14.26H31.9668L27.1468 26.5H26.2268L21.4068 14.26H21.3868L21.5068 16.66V26.5H20.5468V13.3H22.0468L26.0268 23.3L26.6868 25.32H26.7068L27.3468 23.32L31.3268 13.3H32.8268Z" fill="#F1F1F1"/>
</svg>
