<svg width="44" height="44" viewBox="0 0 44 44" fill="none" xmlns="http://www.w3.org/2000/svg">
<path d="M22.5925 21.5L29 15.0925L28.4075 14.5L22 20.9075L15.5925 14.5L15 15.0925L21.4075 21.5L15 27.9075L15.5925 28.5L22 22.0925L28.4075 28.5L29 27.9075L22.5925 21.5Z" fill="#1E1E1E"/>
<path fill-rule="evenodd" clip-rule="evenodd" d="M28.2731 14.4297L28.9297 15.0863L22.5863 21.4297L28.9297 27.7731L28.2731 28.4297L21.9297 22.0863L15.5863 28.4297L14.9297 27.7731L21.2731 21.4297L14.9297 15.0863L15.5863 14.4297L21.9297 20.7731L28.2731 14.4297ZM15.0697 15.0863L21.4131 21.4297L15.0697 27.7731L15.5863 28.2897L21.9297 21.9463L28.2731 28.2897L28.7897 27.7731L22.4463 21.4297L28.7897 15.0863L28.2731 14.5697L21.9297 20.9131L15.5863 14.5697L15.0697 15.0863Z" fill="#1E1E1E"/>
</svg>
