<svg width="40" height="40" viewBox="0 0 40 40" fill="none" xmlns="http://www.w3.org/2000/svg">
<rect width="40" height="40" rx="20" fill="#1E1E1E"/>
<path d="M12.8123 13.3C14.9189 13.3 16.5389 13.86 17.6723 14.98C18.8189 16.0867 19.3923 17.6933 19.3923 19.8C19.3923 21.9733 18.8189 23.6333 17.6723 24.78C16.5389 25.9267 14.9189 26.5 12.8123 26.5H8.65227V13.3H12.8123ZM12.8923 25.58C14.6523 25.58 15.9989 25.08 16.9323 24.08C17.8789 23.08 18.3523 21.6533 18.3523 19.8C18.3523 18.0133 17.8789 16.64 16.9323 15.68C15.9989 14.7067 14.6523 14.22 12.8923 14.22H9.65227V25.58H12.8923ZM27.6148 13.3C28.9348 13.3 29.9814 13.6333 30.7548 14.3C31.5414 14.9667 31.9348 15.88 31.9348 17.04C31.9348 18.2 31.5414 19.1067 30.7548 19.76C29.9681 20.4 28.9148 20.72 27.5948 20.72L27.4948 20.78H23.7148V26.5H22.7148V13.3H27.6148ZM27.5948 19.84C28.6614 19.84 29.4748 19.6 30.0348 19.12C30.6081 18.64 30.8948 17.9467 30.8948 17.04C30.8948 16.1333 30.6081 15.44 30.0348 14.96C29.4748 14.4667 28.6614 14.22 27.5948 14.22H23.7148V19.84H27.5948ZM28.3748 20.02L32.6348 26.5H31.4548L27.5348 20.58L28.3748 20.02Z" fill="#F1F1F1"/>
</svg>
