<svg width="89" height="21" viewBox="0 0 89 21" fill="none" xmlns="http://www.w3.org/2000/svg">
<g clip-path="url(#clip0_2965_26865)">
<path d="M2.33301 5.75H5.33301V5.91699H2.41699V15.083H11.583V12.167H11.75V15.167C11.7499 15.189 11.7411 15.21 11.7256 15.2256C11.71 15.2411 11.689 15.2499 11.667 15.25H2.33301C2.31102 15.2499 2.28996 15.2411 2.27441 15.2256C2.25886 15.21 2.25009 15.189 2.25 15.167V5.83301C2.25009 5.81102 2.25886 5.78997 2.27441 5.77441C2.28997 5.75886 2.31102 5.75009 2.33301 5.75ZM11.75 5.75V9.41699H11.583V6.03418L10.7295 6.8877L6.99902 10.6172L6.88184 10.5L10.6123 6.77051L11.4658 5.91699H8.08301V5.75H11.75Z" fill="#E968FE" stroke="#E968FE"/>
</g>
<path d="M26.96 12.634C26.764 13.1567 26.484 13.6093 26.12 13.992C25.756 14.3653 25.3267 14.65 24.832 14.846C24.3467 15.042 23.8147 15.14 23.236 15.14C22.3587 15.14 21.598 14.9487 20.954 14.566C20.3193 14.174 19.8247 13.6233 19.47 12.914C19.1247 12.2047 18.952 11.36 18.952 10.38C18.952 9.4 19.1247 8.55533 19.47 7.846C19.8247 7.13667 20.3193 6.59067 20.954 6.208C21.598 5.816 22.3493 5.62 23.208 5.62C23.8053 5.62 24.3373 5.704 24.804 5.872C25.2707 6.03067 25.6673 6.27333 25.994 6.6C26.33 6.91733 26.596 7.30933 26.792 7.776L25.686 8.294C25.4807 7.762 25.182 7.36067 24.79 7.09C24.4073 6.81 23.908 6.67 23.292 6.67C22.6667 6.67 22.116 6.81933 21.64 7.118C21.164 7.40733 20.7907 7.82733 20.52 8.378C20.2587 8.92867 20.128 9.596 20.128 10.38C20.128 11.1547 20.254 11.822 20.506 12.382C20.758 12.9327 21.1173 13.3573 21.584 13.656C22.0507 13.9453 22.6013 14.09 23.236 14.09C23.852 14.09 24.3887 13.936 24.846 13.628C25.3033 13.3107 25.6347 12.8393 25.84 12.214L26.96 12.634ZM32.0777 7.86C32.7403 7.86 33.3237 8.00467 33.8277 8.294C34.341 8.58333 34.7423 9.00333 35.0317 9.554C35.321 10.0953 35.4657 10.744 35.4657 11.5C35.4657 12.256 35.321 12.9093 35.0317 13.46C34.7423 14.0013 34.341 14.4167 33.8277 14.706C33.3237 14.9953 32.7403 15.14 32.0777 15.14C31.4243 15.14 30.841 14.9953 30.3277 14.706C29.8143 14.4167 29.413 14.0013 29.1237 13.46C28.8343 12.9093 28.6897 12.256 28.6897 11.5C28.6897 10.744 28.8343 10.0953 29.1237 9.554C29.413 9.00333 29.8143 8.58333 30.3277 8.294C30.841 8.00467 31.4243 7.86 32.0777 7.86ZM32.0777 8.826C31.6017 8.826 31.1957 8.93333 30.8597 9.148C30.5237 9.36267 30.2623 9.67067 30.0757 10.072C29.8983 10.464 29.8097 10.94 29.8097 11.5C29.8097 12.0507 29.8983 12.5267 30.0757 12.928C30.2623 13.3293 30.5237 13.6373 30.8597 13.852C31.1957 14.0667 31.6017 14.174 32.0777 14.174C32.5537 14.174 32.9597 14.0667 33.2957 13.852C33.6317 13.6373 33.8883 13.3293 34.0657 12.928C34.2523 12.5267 34.3457 12.0507 34.3457 11.5C34.3457 10.94 34.2523 10.464 34.0657 10.072C33.8883 9.67067 33.6317 9.36267 33.2957 9.148C32.9597 8.93333 32.5537 8.826 32.0777 8.826ZM37.8542 15V8H38.8342L38.9042 9.092C39.1562 8.66267 39.4829 8.35 39.8842 8.154C40.2949 7.958 40.7149 7.86 41.1442 7.86C41.6389 7.86 42.1055 7.972 42.5442 8.196C42.9829 8.42 43.3189 8.76533 43.5522 9.232C43.7015 8.91467 43.9115 8.658 44.1822 8.462C44.4529 8.25667 44.7469 8.10733 45.0642 8.014C45.3909 7.91133 45.6989 7.86 45.9882 7.86C46.4362 7.86 46.8609 7.95333 47.2622 8.14C47.6729 8.32667 48.0089 8.616 48.2702 9.008C48.5315 9.4 48.6622 9.904 48.6622 10.52V15H47.5422V10.632C47.5422 9.99733 47.3835 9.54 47.0662 9.26C46.7489 8.98 46.3569 8.84 45.8902 8.84C45.5262 8.84 45.1855 8.92867 44.8682 9.106C44.5509 9.28333 44.2942 9.54467 44.0982 9.89C43.9115 10.2353 43.8182 10.66 43.8182 11.164V15H42.6982V10.632C42.6982 9.99733 42.5395 9.54 42.2222 9.26C41.9049 8.98 41.5129 8.84 41.0462 8.84C40.7382 8.84 40.4209 8.924 40.0942 9.092C39.7769 9.25067 39.5109 9.50733 39.2962 9.862C39.0815 10.2167 38.9742 10.6833 38.9742 11.262V15H37.8542ZM51.4779 17.94V8H52.4579L52.5559 9.708L52.4019 9.512C52.5233 9.18533 52.7053 8.90067 52.9479 8.658C53.1906 8.406 53.4846 8.21 53.8299 8.07C54.1753 7.93 54.5486 7.86 54.9499 7.86C55.5193 7.86 56.0419 8.00467 56.5179 8.294C57.0033 8.58333 57.3906 8.99867 57.6799 9.54C57.9693 10.0813 58.1139 10.7347 58.1139 11.5C58.1139 12.256 57.9646 12.9093 57.6659 13.46C57.3766 14.0013 56.9893 14.4167 56.5039 14.706C56.0186 14.9953 55.4866 15.14 54.9079 15.14C54.3293 15.14 53.8206 15 53.3819 14.72C52.9526 14.4307 52.6446 14.0667 52.4579 13.628L52.5979 13.418V17.94H51.4779ZM54.7959 14.16C55.4866 14.16 56.0233 13.9173 56.4059 13.432C56.7979 12.9467 56.9939 12.3027 56.9939 11.5C56.9939 10.6973 56.8026 10.0533 56.4199 9.568C56.0466 9.08267 55.5193 8.84 54.8379 8.84C54.3899 8.84 53.9979 8.952 53.6619 9.176C53.3259 9.39067 53.0646 9.69867 52.8779 10.1C52.6913 10.492 52.5979 10.9587 52.5979 11.5C52.5979 12.032 52.6866 12.4987 52.8639 12.9C53.0506 13.3013 53.3073 13.614 53.6339 13.838C53.9699 14.0527 54.3573 14.16 54.7959 14.16ZM64.6233 10.478C64.6233 9.95533 64.4833 9.554 64.2033 9.274C63.9233 8.98467 63.5266 8.84 63.0133 8.84C62.5279 8.84 62.1173 8.94733 61.7813 9.162C61.4453 9.36733 61.1979 9.70333 61.0393 10.17L60.1293 9.61C60.3159 9.08733 60.6613 8.66733 61.1653 8.35C61.6693 8.02333 62.2946 7.86 63.0413 7.86C63.5453 7.86 64.0026 7.94867 64.4133 8.126C64.8239 8.294 65.1459 8.55533 65.3793 8.91C65.6219 9.25533 65.7433 9.70333 65.7433 10.254V13.642C65.7433 13.978 65.9206 14.146 66.2753 14.146C66.4526 14.146 66.6253 14.1227 66.7933 14.076L66.7373 14.958C66.5506 15.0513 66.3079 15.098 66.0093 15.098C65.7386 15.098 65.4959 15.0467 65.2813 14.944C65.0666 14.8413 64.8986 14.6873 64.7773 14.482C64.6559 14.2673 64.5953 14.0013 64.5953 13.684V13.544L64.8753 13.586C64.7633 13.95 64.5719 14.2487 64.3013 14.482C64.0306 14.706 63.7273 14.874 63.3913 14.986C63.0553 15.0887 62.7239 15.14 62.3973 15.14C61.9866 15.14 61.6039 15.07 61.2493 14.93C60.8946 14.79 60.6099 14.58 60.3953 14.3C60.1899 14.0107 60.0873 13.656 60.0873 13.236C60.0873 12.7133 60.2599 12.284 60.6053 11.948C60.9599 11.6027 61.4499 11.3693 62.0753 11.248L64.8473 10.702V11.626L62.5933 12.088C62.1359 12.1813 61.7953 12.312 61.5713 12.48C61.3473 12.648 61.2353 12.8813 61.2353 13.18C61.2353 13.4693 61.3473 13.7073 61.5713 13.894C61.8046 14.0713 62.1313 14.16 62.5513 14.16C62.8219 14.16 63.0786 14.1273 63.3213 14.062C63.5733 13.9873 63.7973 13.88 63.9933 13.74C64.1893 13.5907 64.3433 13.4087 64.4553 13.194C64.5673 12.97 64.6233 12.7087 64.6233 12.41V10.478ZM68.745 15V8H69.655L69.809 9.148C70.005 8.71867 70.2896 8.39667 70.663 8.182C71.0456 7.96733 71.5076 7.86 72.049 7.86C72.1703 7.86 72.301 7.86933 72.441 7.888C72.5903 7.90667 72.7163 7.944 72.819 8L72.623 9.022C72.5203 8.98467 72.4083 8.95667 72.287 8.938C72.1656 8.91933 71.993 8.91 71.769 8.91C71.4796 8.91 71.1856 8.994 70.887 9.162C70.5976 9.33 70.355 9.58667 70.159 9.932C69.963 10.268 69.865 10.6973 69.865 11.22V15H68.745ZM75.968 6.012V13.068C75.968 13.4133 76.066 13.67 76.262 13.838C76.458 14.006 76.71 14.09 77.018 14.09C77.2887 14.09 77.522 14.0433 77.718 13.95C77.914 13.8567 78.0913 13.7307 78.25 13.572L78.642 14.51C78.4273 14.706 78.1707 14.86 77.872 14.972C77.5827 15.084 77.2467 15.14 76.864 15.14C76.5093 15.14 76.178 15.0793 75.87 14.958C75.562 14.8273 75.3147 14.6267 75.128 14.356C74.9507 14.076 74.8573 13.712 74.848 13.264V6.32L75.968 6.012ZM78.516 8V8.966H73.448V8H78.516ZM81.0212 6.656C80.7692 6.656 80.5639 6.58133 80.4052 6.432C80.2559 6.27333 80.1812 6.068 80.1812 5.816C80.1812 5.564 80.2559 5.36333 80.4052 5.214C80.5639 5.05533 80.7692 4.976 81.0212 4.976C81.2732 4.976 81.4739 5.05533 81.6232 5.214C81.7819 5.36333 81.8612 5.564 81.8612 5.816C81.8612 6.068 81.7819 6.27333 81.6232 6.432C81.4739 6.58133 81.2732 6.656 81.0212 6.656ZM81.5812 8V15H80.4612V8H81.5812ZM84.46 15V8H85.37L85.524 9.148C85.72 8.71867 86.0046 8.39667 86.378 8.182C86.7606 7.96733 87.2226 7.86 87.764 7.86C87.8853 7.86 88.016 7.86933 88.156 7.888C88.3053 7.90667 88.4313 7.944 88.534 8L88.338 9.022C88.2353 8.98467 88.1233 8.95667 88.002 8.938C87.8806 8.91933 87.708 8.91 87.484 8.91C87.1946 8.91 86.9006 8.994 86.602 9.162C86.3126 9.33 86.07 9.58667 85.874 9.932C85.678 10.268 85.58 10.6973 85.58 11.22V15H84.46Z" fill="#E968FE"/>
<defs>
<clipPath id="clip0_2965_26865">
<rect width="14" height="14" fill="white" transform="translate(0 3.5)"/>
</clipPath>
</defs>
</svg>
