<svg width="33" height="32" viewBox="0 0 33 32" fill="none" xmlns="http://www.w3.org/2000/svg">
<rect x="0.5" width="32" height="32" rx="16" fill="#E968FE"/>
<g clip-path="url(#clip0_2964_22271)">
<path d="M16.5003 15.1288C17.6535 15.1288 18.7593 15.5869 19.5747 16.4023C20.3901 17.2176 20.8482 18.3235 20.8482 19.4766V24.694H19.109V19.4766C19.1091 18.8112 18.8548 18.171 18.3984 17.6869C17.9419 17.2027 17.3176 16.9113 16.6534 16.8723L16.5003 16.868C15.8349 16.8679 15.1947 17.1221 14.7105 17.5786C14.2264 18.0351 13.935 18.6593 13.896 19.3236L13.8916 19.4766V24.694H12.1525V19.4766C12.1525 18.3235 12.6106 17.2176 13.426 16.4023C14.2413 15.5869 15.3472 15.1288 16.5003 15.1288ZM10.8482 17.7375C11.0908 17.7375 11.3264 17.7662 11.5525 17.8193C11.4038 18.2619 11.3158 18.7226 11.2908 19.1888L11.2829 19.4766V19.5514C11.183 19.5157 11.079 19.4923 10.9734 19.4819L10.8482 19.4766C10.5239 19.4767 10.2113 19.5974 9.97128 19.8154C9.73126 20.0334 9.58103 20.333 9.5499 20.6558L9.54382 20.781V24.694H7.80469V20.781C7.80469 19.9738 8.12534 19.1997 8.6961 18.6289C9.26686 18.0582 10.041 17.7375 10.8482 17.7375ZM22.1525 17.7375C22.9597 17.7375 23.7338 18.0582 24.3046 18.6289C24.8753 19.1997 25.196 19.9738 25.196 20.781V24.694H23.4569V20.781C23.4568 20.4567 23.3361 20.1441 23.1181 19.9041C22.9001 19.6641 22.6005 19.5139 22.2777 19.4827L22.1525 19.4766C22.0003 19.4766 21.8543 19.5027 21.7177 19.5506V19.4766C21.7177 18.8975 21.6238 18.341 21.449 17.821C21.6743 17.7662 21.9099 17.7375 22.1525 17.7375ZM10.8482 12.5201C11.4247 12.5201 11.9777 12.7492 12.3854 13.1568C12.793 13.5645 13.0221 14.1175 13.0221 14.694C13.0221 15.2706 12.793 15.8235 12.3854 16.2312C11.9777 16.6389 11.4247 16.868 10.8482 16.868C10.2716 16.868 9.71866 16.6389 9.31098 16.2312C8.90329 15.8235 8.67425 15.2706 8.67425 14.694C8.67425 14.1175 8.90329 13.5645 9.31098 13.1568C9.71866 12.7492 10.2716 12.5201 10.8482 12.5201ZM22.1525 12.5201C22.7291 12.5201 23.282 12.7492 23.6897 13.1568C24.0974 13.5645 24.3264 14.1175 24.3264 14.694C24.3264 15.2706 24.0974 15.8235 23.6897 16.2312C23.282 16.6389 22.7291 16.868 22.1525 16.868C21.576 16.868 21.023 16.6389 20.6153 16.2312C20.2076 15.8235 19.9786 15.2706 19.9786 14.694C19.9786 14.1175 20.2076 13.5645 20.6153 13.1568C21.023 12.7492 21.576 12.5201 22.1525 12.5201ZM10.8482 14.2593C10.7329 14.2593 10.6223 14.3051 10.5407 14.3866C10.4592 14.4681 10.4134 14.5787 10.4134 14.694C10.4134 14.8094 10.4592 14.9199 10.5407 15.0015C10.6223 15.083 10.7329 15.1288 10.8482 15.1288C10.9635 15.1288 11.0741 15.083 11.1556 15.0015C11.2371 14.9199 11.2829 14.8094 11.2829 14.694C11.2829 14.5787 11.2371 14.4681 11.1556 14.3866C11.0741 14.3051 10.9635 14.2593 10.8482 14.2593ZM22.1525 14.2593C22.0372 14.2593 21.9266 14.3051 21.8451 14.3866C21.7635 14.4681 21.7177 14.5787 21.7177 14.694C21.7177 14.8094 21.7635 14.9199 21.8451 15.0015C21.9266 15.083 22.0372 15.1288 22.1525 15.1288C22.2678 15.1288 22.3784 15.083 22.46 15.0015C22.5415 14.9199 22.5873 14.8094 22.5873 14.694C22.5873 14.5787 22.5415 14.4681 22.46 14.3866C22.3784 14.3051 22.2678 14.2593 22.1525 14.2593ZM16.5003 7.30273C17.4228 7.30273 18.3075 7.66919 18.9598 8.32149C19.6121 8.97379 19.9786 9.8585 19.9786 10.781C19.9786 11.7035 19.6121 12.5882 18.9598 13.2405C18.3075 13.8928 17.4228 14.2593 16.5003 14.2593C15.5778 14.2593 14.6931 13.8928 14.0408 13.2405C13.3885 12.5882 13.0221 11.7035 13.0221 10.781C13.0221 9.8585 13.3885 8.97379 14.0408 8.32149C14.6931 7.66919 15.5778 7.30273 16.5003 7.30273ZM16.5003 9.04186C16.0391 9.04186 15.5967 9.22509 15.2706 9.55124C14.9444 9.87739 14.7612 10.3197 14.7612 10.781C14.7612 11.2422 14.9444 11.6846 15.2706 12.0107C15.5967 12.3369 16.0391 12.5201 16.5003 12.5201C16.9616 12.5201 17.4039 12.3369 17.7301 12.0107C18.0562 11.6846 18.2395 11.2422 18.2395 10.781C18.2395 10.3197 18.0562 9.87739 17.7301 9.55124C17.4039 9.22509 16.9616 9.04186 16.5003 9.04186Z" fill="#F1F1F1"/>
</g>
<defs>
<clipPath id="clip0_2964_22271">
<rect width="20.8696" height="20.8696" fill="white" transform="translate(6.06543 5.56445)"/>
</clipPath>
</defs>
</svg>
