<svg width="205" height="21" viewBox="0 0 205 21" fill="none" xmlns="http://www.w3.org/2000/svg">
<g clip-path="url(#clip0_3275_2214)">
<path d="M5.83343 12.3509L11.1954 6.98828L12.0208 7.81311L5.83343 14.0005L2.12109 10.2882L2.94593 9.46336L5.83343 12.3509Z" fill="#1E1E1E"/>
</g>
<path d="M24.886 5.76C25.81 5.76 26.5427 5.99333 27.084 6.46C27.6347 6.92667 27.91 7.566 27.91 8.378C27.91 9.19 27.6347 9.82467 27.084 10.282C26.5333 10.73 25.796 10.954 24.872 10.954L24.802 10.996H22.156V15H21.456V5.76H24.886ZM24.872 10.338C25.6187 10.338 26.188 10.17 26.58 9.834C26.9813 9.498 27.182 9.01267 27.182 8.378C27.182 7.74333 26.9813 7.258 26.58 6.922C26.188 6.57667 25.6187 6.404 24.872 6.404H22.156V10.338H24.872ZM25.418 10.464L28.4 15H27.574L24.83 10.856L25.418 10.464ZM33.1183 15.14C32.4743 15.14 31.9003 14.9953 31.3963 14.706C30.8923 14.4167 30.4957 14.0013 30.2063 13.46C29.9263 12.9093 29.7863 12.256 29.7863 11.5C29.7863 10.744 29.9263 10.0953 30.2063 9.554C30.4957 9.00333 30.883 8.58333 31.3683 8.294C31.863 8.00467 32.4183 7.86 33.0343 7.86C33.669 7.86 34.2103 8 34.6583 8.28C35.1063 8.56 35.4517 8.952 35.6943 9.456C35.937 9.95067 36.0583 10.5247 36.0583 11.178C36.0583 11.262 36.0537 11.346 36.0443 11.43C36.0443 11.5047 36.0397 11.5747 36.0303 11.64H30.2203V11.01H35.7223L35.3723 11.108C35.363 10.3053 35.1483 9.666 34.7283 9.19C34.3177 8.714 33.7483 8.476 33.0203 8.476C32.5163 8.476 32.073 8.59733 31.6903 8.84C31.3077 9.07333 31.009 9.41867 30.7943 9.876C30.5797 10.324 30.4723 10.8653 30.4723 11.5C30.4723 12.1253 30.5797 12.6667 30.7943 13.124C31.0183 13.5813 31.3263 13.9313 31.7183 14.174C32.1197 14.4073 32.5817 14.524 33.1043 14.524C33.6457 14.524 34.1077 14.4073 34.4903 14.174C34.8823 13.9407 35.1857 13.6187 35.4003 13.208L35.9603 13.53C35.7923 13.866 35.5683 14.1553 35.2883 14.398C35.0083 14.6313 34.6863 14.8133 34.3223 14.944C33.9583 15.0747 33.557 15.14 33.1183 15.14ZM41.1633 7.86C41.6393 7.86 42.064 7.93467 42.4373 8.084C42.8106 8.23333 43.128 8.448 43.3893 8.728C43.6506 9.008 43.8513 9.34867 43.9913 9.75L43.3333 10.058C43.184 9.554 42.9226 9.16667 42.5493 8.896C42.1853 8.616 41.7186 8.476 41.1493 8.476C40.636 8.476 40.1833 8.59733 39.7913 8.84C39.3993 9.07333 39.096 9.41867 38.8813 9.876C38.6666 10.324 38.5593 10.8653 38.5593 11.5C38.5593 12.1253 38.6666 12.6667 38.8813 13.124C39.096 13.5813 39.3946 13.9313 39.7773 14.174C40.16 14.4073 40.6126 14.524 41.1353 14.524C41.5273 14.524 41.882 14.4587 42.1993 14.328C42.526 14.1973 42.792 14.006 42.9973 13.754C43.212 13.502 43.352 13.2033 43.4173 12.858L44.0613 13.082C43.94 13.5113 43.7393 13.88 43.4593 14.188C43.1886 14.496 42.8573 14.734 42.4653 14.902C42.0733 15.0607 41.6346 15.14 41.1493 15.14C40.5146 15.14 39.9453 14.9953 39.4413 14.706C38.9466 14.4167 38.5593 14.0013 38.2793 13.46C37.9993 12.9093 37.8593 12.256 37.8593 11.5C37.8593 10.744 37.9993 10.0953 38.2793 9.554C38.5686 9.00333 38.9606 8.58333 39.4553 8.294C39.9593 8.00467 40.5286 7.86 41.1633 7.86ZM49.0729 7.86C49.7262 7.86 50.3002 8.00467 50.7949 8.294C51.2989 8.58333 51.6909 9.00333 51.9709 9.554C52.2602 10.0953 52.4049 10.744 52.4049 11.5C52.4049 12.256 52.2602 12.9093 51.9709 13.46C51.6909 14.0013 51.2989 14.4167 50.7949 14.706C50.3002 14.9953 49.7262 15.14 49.0729 15.14C48.4195 15.14 47.8409 14.9953 47.3369 14.706C46.8422 14.4167 46.4502 14.0013 46.1609 13.46C45.8809 12.9093 45.7409 12.256 45.7409 11.5C45.7409 10.744 45.8809 10.0953 46.1609 9.554C46.4502 9.00333 46.8422 8.58333 47.3369 8.294C47.8409 8.00467 48.4195 7.86 49.0729 7.86ZM49.0729 8.462C48.5409 8.462 48.0789 8.58333 47.6869 8.826C47.2949 9.06867 46.9869 9.41867 46.7629 9.876C46.5482 10.324 46.4409 10.8653 46.4409 11.5C46.4409 12.1253 46.5482 12.6667 46.7629 13.124C46.9869 13.5813 47.2949 13.9313 47.6869 14.174C48.0789 14.4167 48.5409 14.538 49.0729 14.538C49.6049 14.538 50.0669 14.4167 50.4589 14.174C50.8509 13.9313 51.1542 13.5813 51.3689 13.124C51.5929 12.6667 51.7049 12.1253 51.7049 11.5C51.7049 10.8653 51.5929 10.324 51.3689 9.876C51.1542 9.41867 50.8509 9.06867 50.4589 8.826C50.0669 8.58333 49.6049 8.462 49.0729 8.462ZM54.6863 15V8H55.3163L55.3583 9.456C55.5636 8.952 55.895 8.56 56.3523 8.28C56.819 8 57.337 7.86 57.9063 7.86C58.513 7.86 59.0356 8.00467 59.4743 8.294C59.9223 8.58333 60.2303 9.008 60.3983 9.568C60.5196 9.21333 60.7156 8.91 60.9863 8.658C61.257 8.39667 61.5743 8.196 61.9383 8.056C62.3023 7.916 62.6803 7.846 63.0723 7.846C63.5576 7.846 63.9963 7.944 64.3883 8.14C64.7896 8.32667 65.107 8.616 65.3403 9.008C65.583 9.39067 65.7043 9.87133 65.7043 10.45V14.986H65.0043V10.52C65.0043 9.82933 64.8176 9.316 64.4443 8.98C64.0803 8.63467 63.595 8.462 62.9883 8.462C62.5496 8.462 62.1436 8.56933 61.7703 8.784C61.397 8.98933 61.0983 9.28333 60.8743 9.666C60.6596 10.0393 60.5523 10.4733 60.5523 10.968V15H59.8523V10.534C59.8523 9.84333 59.6656 9.33 59.2923 8.994C58.919 8.64867 58.4336 8.476 57.8363 8.476C57.4163 8.476 57.0196 8.57867 56.6463 8.784C56.273 8.98933 55.9696 9.28333 55.7363 9.666C55.503 10.0487 55.3863 10.506 55.3863 11.038V15H54.6863ZM68.7558 6.642C68.5784 6.642 68.4338 6.59067 68.3218 6.488C68.2191 6.376 68.1678 6.23133 68.1678 6.054C68.1678 5.87667 68.2191 5.73667 68.3218 5.634C68.4338 5.522 68.5784 5.466 68.7558 5.466C68.9331 5.466 69.0731 5.522 69.1758 5.634C69.2878 5.73667 69.3438 5.87667 69.3438 6.054C69.3438 6.23133 69.2878 6.376 69.1758 6.488C69.0731 6.59067 68.9331 6.642 68.7558 6.642ZM69.1058 8V15H68.4058V8H69.1058ZM74.741 15.14C74.097 15.14 73.523 14.9953 73.019 14.706C72.515 14.4167 72.1183 14.0013 71.829 13.46C71.549 12.9093 71.409 12.256 71.409 11.5C71.409 10.744 71.549 10.0953 71.829 9.554C72.1183 9.00333 72.5057 8.58333 72.991 8.294C73.4857 8.00467 74.041 7.86 74.657 7.86C75.2917 7.86 75.833 8 76.281 8.28C76.729 8.56 77.0743 8.952 77.317 9.456C77.5597 9.95067 77.681 10.5247 77.681 11.178C77.681 11.262 77.6763 11.346 77.667 11.43C77.667 11.5047 77.6623 11.5747 77.653 11.64H71.843V11.01H77.345L76.995 11.108C76.9857 10.3053 76.771 9.666 76.351 9.19C75.9403 8.714 75.371 8.476 74.643 8.476C74.139 8.476 73.6957 8.59733 73.313 8.84C72.9303 9.07333 72.6317 9.41867 72.417 9.876C72.2023 10.324 72.095 10.8653 72.095 11.5C72.095 12.1253 72.2023 12.6667 72.417 13.124C72.641 13.5813 72.949 13.9313 73.341 14.174C73.7423 14.4073 74.2043 14.524 74.727 14.524C75.2683 14.524 75.7303 14.4073 76.113 14.174C76.505 13.9407 76.8083 13.6187 77.023 13.208L77.583 13.53C77.415 13.866 77.191 14.1553 76.911 14.398C76.631 14.6313 76.309 14.8133 75.945 14.944C75.581 15.0747 75.1797 15.14 74.741 15.14ZM79.958 15V8H80.588L80.644 9.75L80.532 9.652C80.6626 9.26933 80.8586 8.94267 81.12 8.672C81.3813 8.40133 81.694 8.20067 82.058 8.07C82.422 7.93 82.814 7.86 83.234 7.86C83.7566 7.86 84.2186 7.958 84.62 8.154C85.0213 8.35 85.334 8.63933 85.558 9.022C85.7913 9.40467 85.908 9.88533 85.908 10.464V15H85.208V10.688C85.208 9.92267 85.0166 9.36267 84.634 9.008C84.2606 8.65333 83.7706 8.476 83.164 8.476C82.7253 8.476 82.3146 8.57867 81.932 8.784C81.5586 8.98 81.2506 9.26933 81.008 9.652C80.7746 10.0347 80.658 10.5013 80.658 11.052V15H79.958ZM91.3351 15.14C90.7285 15.14 90.1825 14.9953 89.6971 14.706C89.2118 14.4167 88.8291 14.0013 88.5491 13.46C88.2785 12.9093 88.1431 12.256 88.1431 11.5C88.1431 10.7253 88.2878 10.0673 88.5771 9.526C88.8665 8.98467 89.2585 8.574 89.7531 8.294C90.2478 8.00467 90.7985 7.86 91.4051 7.86C92.0491 7.86 92.5998 8.03267 93.0571 8.378C93.5238 8.72333 93.8365 9.19933 93.9951 9.806L93.9111 9.876V4.78H94.6111V15H93.9811L93.9391 13.054L94.0231 13.026C93.9391 13.474 93.7665 13.8567 93.5051 14.174C93.2531 14.4913 92.9358 14.734 92.5531 14.902C92.1798 15.0607 91.7738 15.14 91.3351 15.14ZM91.4191 14.524C91.9138 14.524 92.3478 14.4027 92.7211 14.16C93.0945 13.908 93.3838 13.5487 93.5891 13.082C93.8038 12.6153 93.9111 12.0693 93.9111 11.444C93.9111 10.828 93.8038 10.3007 93.5891 9.862C93.3838 9.414 93.0945 9.07333 92.7211 8.84C92.3571 8.59733 91.9325 8.476 91.4471 8.476C90.6445 8.476 90.0098 8.74667 89.5431 9.288C89.0765 9.82933 88.8431 10.5667 88.8431 11.5C88.8431 12.4333 89.0718 13.1707 89.5291 13.712C89.9958 14.2533 90.6258 14.524 91.4191 14.524ZM100.245 7.86C100.898 7.86 101.472 8.00467 101.967 8.294C102.471 8.58333 102.863 9.00333 103.143 9.554C103.432 10.0953 103.577 10.744 103.577 11.5C103.577 12.256 103.432 12.9093 103.143 13.46C102.863 14.0013 102.471 14.4167 101.967 14.706C101.472 14.9953 100.898 15.14 100.245 15.14C99.5917 15.14 99.013 14.9953 98.509 14.706C98.0144 14.4167 97.6224 14.0013 97.333 13.46C97.053 12.9093 96.913 12.256 96.913 11.5C96.913 10.744 97.053 10.0953 97.333 9.554C97.6224 9.00333 98.0144 8.58333 98.509 8.294C99.013 8.00467 99.5917 7.86 100.245 7.86ZM100.245 8.462C99.713 8.462 99.251 8.58333 98.859 8.826C98.467 9.06867 98.159 9.41867 97.935 9.876C97.7204 10.324 97.613 10.8653 97.613 11.5C97.613 12.1253 97.7204 12.6667 97.935 13.124C98.159 13.5813 98.467 13.9313 98.859 14.174C99.251 14.4167 99.713 14.538 100.245 14.538C100.777 14.538 101.239 14.4167 101.631 14.174C102.023 13.9313 102.326 13.5813 102.541 13.124C102.765 12.6667 102.877 12.1253 102.877 11.5C102.877 10.8653 102.765 10.324 102.541 9.876C102.326 9.41867 102.023 9.06867 101.631 8.826C101.239 8.58333 100.777 8.462 100.245 8.462ZM113.383 15.14C112.739 15.14 112.165 14.9953 111.661 14.706C111.157 14.4167 110.761 14.0013 110.471 13.46C110.191 12.9093 110.051 12.256 110.051 11.5C110.051 10.744 110.191 10.0953 110.471 9.554C110.761 9.00333 111.148 8.58333 111.633 8.294C112.128 8.00467 112.683 7.86 113.299 7.86C113.934 7.86 114.475 8 114.923 8.28C115.371 8.56 115.717 8.952 115.959 9.456C116.202 9.95067 116.323 10.5247 116.323 11.178C116.323 11.262 116.319 11.346 116.309 11.43C116.309 11.5047 116.305 11.5747 116.295 11.64H110.485V11.01H115.987L115.637 11.108C115.628 10.3053 115.413 9.666 114.993 9.19C114.583 8.714 114.013 8.476 113.285 8.476C112.781 8.476 112.338 8.59733 111.955 8.84C111.573 9.07333 111.274 9.41867 111.059 9.876C110.845 10.324 110.737 10.8653 110.737 11.5C110.737 12.1253 110.845 12.6667 111.059 13.124C111.283 13.5813 111.591 13.9313 111.983 14.174C112.385 14.4073 112.847 14.524 113.369 14.524C113.911 14.524 114.373 14.4073 114.755 14.174C115.147 13.9407 115.451 13.6187 115.665 13.208L116.225 13.53C116.057 13.866 115.833 14.1553 115.553 14.398C115.273 14.6313 114.951 14.8133 114.587 14.944C114.223 15.0747 113.822 15.14 113.383 15.14ZM120.966 15.14C120.257 15.14 119.627 14.9953 119.076 14.706C118.535 14.4167 118.152 14.0013 117.928 13.46L118.53 13.054C118.698 13.5207 118.997 13.8847 119.426 14.146C119.865 14.398 120.397 14.524 121.022 14.524C121.638 14.524 122.119 14.4027 122.464 14.16C122.819 13.9173 122.996 13.5953 122.996 13.194C122.996 12.9233 122.907 12.69 122.73 12.494C122.562 12.2887 122.24 12.1347 121.764 12.032L120.126 11.682C119.463 11.542 118.987 11.318 118.698 11.01C118.409 10.6927 118.264 10.31 118.264 9.862C118.264 9.48867 118.376 9.15267 118.6 8.854C118.824 8.55533 119.132 8.31733 119.524 8.14C119.925 7.95333 120.392 7.86 120.924 7.86C121.624 7.86 122.203 8 122.66 8.28C123.117 8.55067 123.439 8.96133 123.626 9.512L123.038 9.89C122.898 9.39533 122.637 9.036 122.254 8.812C121.881 8.588 121.437 8.476 120.924 8.476C120.532 8.476 120.187 8.53667 119.888 8.658C119.599 8.77 119.37 8.92867 119.202 9.134C119.043 9.33 118.964 9.55867 118.964 9.82C118.964 10.0907 119.057 10.338 119.244 10.562C119.431 10.7767 119.762 10.9353 120.238 11.038L121.918 11.402C122.581 11.542 123.043 11.7567 123.304 12.046C123.565 12.326 123.696 12.676 123.696 13.096C123.696 13.5067 123.584 13.8707 123.36 14.188C123.136 14.496 122.819 14.734 122.408 14.902C121.997 15.0607 121.517 15.14 120.966 15.14ZM127.11 6.054V13.152C127.11 13.5907 127.213 13.9267 127.418 14.16C127.633 14.384 127.941 14.496 128.342 14.496C128.604 14.496 128.832 14.454 129.028 14.37C129.234 14.2767 129.416 14.146 129.574 13.978L129.84 14.552C129.663 14.7293 129.439 14.874 129.168 14.986C128.898 15.0887 128.594 15.14 128.258 15.14C127.894 15.14 127.572 15.0747 127.292 14.944C127.012 14.804 126.793 14.594 126.634 14.314C126.485 14.034 126.41 13.6793 126.41 13.25V6.25L127.11 6.054ZM129.728 8V8.602H125.01V8H129.728ZM134.362 15.14C133.718 15.14 133.144 14.9953 132.64 14.706C132.136 14.4167 131.739 14.0013 131.45 13.46C131.17 12.9093 131.03 12.256 131.03 11.5C131.03 10.744 131.17 10.0953 131.45 9.554C131.739 9.00333 132.127 8.58333 132.612 8.294C133.107 8.00467 133.662 7.86 134.278 7.86C134.913 7.86 135.454 8 135.902 8.28C136.35 8.56 136.695 8.952 136.938 9.456C137.181 9.95067 137.302 10.5247 137.302 11.178C137.302 11.262 137.297 11.346 137.288 11.43C137.288 11.5047 137.283 11.5747 137.274 11.64H131.464V11.01H136.966L136.616 11.108C136.607 10.3053 136.392 9.666 135.972 9.19C135.561 8.714 134.992 8.476 134.264 8.476C133.76 8.476 133.317 8.59733 132.934 8.84C132.551 9.07333 132.253 9.41867 132.038 9.876C131.823 10.324 131.716 10.8653 131.716 11.5C131.716 12.1253 131.823 12.6667 132.038 13.124C132.262 13.5813 132.57 13.9313 132.962 14.174C133.363 14.4073 133.825 14.524 134.348 14.524C134.889 14.524 135.351 14.4073 135.734 14.174C136.126 13.9407 136.429 13.6187 136.644 13.208L137.204 13.53C137.036 13.866 136.812 14.1553 136.532 14.398C136.252 14.6313 135.93 14.8133 135.566 14.944C135.202 15.0747 134.801 15.14 134.362 15.14ZM144.247 17.94V8H144.877L144.933 9.946L144.835 9.834C144.957 9.43267 145.143 9.08267 145.395 8.784C145.657 8.48533 145.974 8.25667 146.347 8.098C146.721 7.93933 147.127 7.86 147.565 7.86C148.163 7.86 148.699 8.00467 149.175 8.294C149.651 8.58333 150.029 8.99867 150.309 9.54C150.589 10.0813 150.729 10.7347 150.729 11.5C150.729 12.256 150.589 12.9093 150.309 13.46C150.029 14.0013 149.647 14.4167 149.161 14.706C148.685 14.9953 148.144 15.14 147.537 15.14C146.893 15.14 146.333 14.972 145.857 14.636C145.381 14.2907 145.05 13.8287 144.863 13.25L144.947 13.124V17.94H144.247ZM147.453 14.524C148.247 14.524 148.872 14.2533 149.329 13.712C149.796 13.1707 150.029 12.4333 150.029 11.5C150.029 10.5667 149.801 9.82933 149.343 9.288C148.886 8.74667 148.265 8.476 147.481 8.476C146.987 8.476 146.548 8.602 146.165 8.854C145.792 9.09667 145.493 9.44667 145.269 9.904C145.055 10.352 144.947 10.884 144.947 11.5C144.947 12.1067 145.055 12.6387 145.269 13.096C145.484 13.5533 145.778 13.908 146.151 14.16C146.534 14.4027 146.968 14.524 147.453 14.524ZM153.031 15V8H153.619L153.703 9.456C153.881 8.97067 154.165 8.58333 154.557 8.294C154.949 8.00467 155.421 7.86 155.971 7.86C156.158 7.86 156.326 7.87867 156.475 7.916C156.625 7.95333 156.751 8.014 156.853 8.098L156.685 8.714C156.583 8.64867 156.471 8.59733 156.349 8.56C156.228 8.52267 156.046 8.504 155.803 8.504C155.449 8.504 155.113 8.616 154.795 8.84C154.478 9.05467 154.221 9.358 154.025 9.75C153.829 10.1327 153.731 10.576 153.731 11.08V15H153.031ZM161.13 7.86C161.784 7.86 162.358 8.00467 162.852 8.294C163.356 8.58333 163.748 9.00333 164.028 9.554C164.318 10.0953 164.462 10.744 164.462 11.5C164.462 12.256 164.318 12.9093 164.028 13.46C163.748 14.0013 163.356 14.4167 162.852 14.706C162.358 14.9953 161.784 15.14 161.13 15.14C160.477 15.14 159.898 14.9953 159.394 14.706C158.9 14.4167 158.508 14.0013 158.218 13.46C157.938 12.9093 157.798 12.256 157.798 11.5C157.798 10.744 157.938 10.0953 158.218 9.554C158.508 9.00333 158.9 8.58333 159.394 8.294C159.898 8.00467 160.477 7.86 161.13 7.86ZM161.13 8.462C160.598 8.462 160.136 8.58333 159.744 8.826C159.352 9.06867 159.044 9.41867 158.82 9.876C158.606 10.324 158.498 10.8653 158.498 11.5C158.498 12.1253 158.606 12.6667 158.82 13.124C159.044 13.5813 159.352 13.9313 159.744 14.174C160.136 14.4167 160.598 14.538 161.13 14.538C161.662 14.538 162.124 14.4167 162.516 14.174C162.908 13.9313 163.212 13.5813 163.426 13.124C163.65 12.6667 163.762 12.1253 163.762 11.5C163.762 10.8653 163.65 10.324 163.426 9.876C163.212 9.41867 162.908 9.06867 162.516 8.826C162.124 8.58333 161.662 8.462 161.13 8.462ZM169.474 15.14C168.867 15.14 168.321 14.9953 167.836 14.706C167.35 14.4167 166.968 14.0013 166.688 13.46C166.417 12.9093 166.282 12.256 166.282 11.5C166.282 10.7253 166.426 10.0673 166.716 9.526C167.005 8.98467 167.397 8.574 167.892 8.294C168.386 8.00467 168.937 7.86 169.544 7.86C170.188 7.86 170.738 8.03267 171.196 8.378C171.662 8.72333 171.975 9.19933 172.134 9.806L172.05 9.876V4.78H172.75V15H172.12L172.078 13.054L172.162 13.026C172.078 13.474 171.905 13.8567 171.644 14.174C171.392 14.4913 171.074 14.734 170.692 14.902C170.318 15.0607 169.912 15.14 169.474 15.14ZM169.558 14.524C170.052 14.524 170.486 14.4027 170.86 14.16C171.233 13.908 171.522 13.5487 171.728 13.082C171.942 12.6153 172.05 12.0693 172.05 11.444C172.05 10.828 171.942 10.3007 171.728 9.862C171.522 9.414 171.233 9.07333 170.86 8.84C170.496 8.59733 170.071 8.476 169.586 8.476C168.783 8.476 168.148 8.74667 167.682 9.288C167.215 9.82933 166.982 10.5667 166.982 11.5C166.982 12.4333 167.21 13.1707 167.668 13.712C168.134 14.2533 168.764 14.524 169.558 14.524ZM177.992 15.14C177.506 15.14 177.072 15.0513 176.69 14.874C176.307 14.6967 176.004 14.4213 175.78 14.048C175.565 13.6653 175.458 13.1893 175.458 12.62V8H176.158V12.452C176.158 13.18 176.33 13.7073 176.676 14.034C177.03 14.3607 177.525 14.524 178.16 14.524C178.533 14.524 178.869 14.4587 179.168 14.328C179.476 14.1973 179.737 14.0153 179.952 13.782C180.166 13.5487 180.33 13.2827 180.442 12.984C180.563 12.676 180.624 12.354 180.624 12.018V8H181.324V15H180.694L180.666 13.558C180.46 14.0527 180.124 14.44 179.658 14.72C179.191 15 178.636 15.14 177.992 15.14ZM186.921 7.86C187.397 7.86 187.821 7.93467 188.195 8.084C188.568 8.23333 188.885 8.448 189.147 8.728C189.408 9.008 189.609 9.34867 189.749 9.75L189.091 10.058C188.941 9.554 188.68 9.16667 188.307 8.896C187.943 8.616 187.476 8.476 186.907 8.476C186.393 8.476 185.941 8.59733 185.549 8.84C185.157 9.07333 184.853 9.41867 184.639 9.876C184.424 10.324 184.317 10.8653 184.317 11.5C184.317 12.1253 184.424 12.6667 184.639 13.124C184.853 13.5813 185.152 13.9313 185.535 14.174C185.917 14.4073 186.37 14.524 186.893 14.524C187.285 14.524 187.639 14.4587 187.957 14.328C188.283 14.1973 188.549 14.006 188.755 13.754C188.969 13.502 189.109 13.2033 189.175 12.858L189.819 13.082C189.697 13.5113 189.497 13.88 189.217 14.188C188.946 14.496 188.615 14.734 188.223 14.902C187.831 15.0607 187.392 15.14 186.907 15.14C186.272 15.14 185.703 14.9953 185.199 14.706C184.704 14.4167 184.317 14.0013 184.037 13.46C183.757 12.9093 183.617 12.256 183.617 11.5C183.617 10.744 183.757 10.0953 184.037 9.554C184.326 9.00333 184.718 8.58333 185.213 8.294C185.717 8.00467 186.286 7.86 186.921 7.86ZM193.136 6.054V13.152C193.136 13.5907 193.239 13.9267 193.444 14.16C193.659 14.384 193.967 14.496 194.368 14.496C194.63 14.496 194.858 14.454 195.054 14.37C195.26 14.2767 195.442 14.146 195.6 13.978L195.866 14.552C195.689 14.7293 195.465 14.874 195.194 14.986C194.924 15.0887 194.62 15.14 194.284 15.14C193.92 15.14 193.598 15.0747 193.318 14.944C193.038 14.804 192.819 14.594 192.66 14.314C192.511 14.034 192.436 13.6793 192.436 13.25V6.25L193.136 6.054ZM195.754 8V8.602H191.036V8H195.754ZM200.388 7.86C201.041 7.86 201.615 8.00467 202.11 8.294C202.614 8.58333 203.006 9.00333 203.286 9.554C203.575 10.0953 203.72 10.744 203.72 11.5C203.72 12.256 203.575 12.9093 203.286 13.46C203.006 14.0013 202.614 14.4167 202.11 14.706C201.615 14.9953 201.041 15.14 200.388 15.14C199.734 15.14 199.156 14.9953 198.652 14.706C198.157 14.4167 197.765 14.0013 197.476 13.46C197.196 12.9093 197.056 12.256 197.056 11.5C197.056 10.744 197.196 10.0953 197.476 9.554C197.765 9.00333 198.157 8.58333 198.652 8.294C199.156 8.00467 199.734 7.86 200.388 7.86ZM200.388 8.462C199.856 8.462 199.394 8.58333 199.002 8.826C198.61 9.06867 198.302 9.41867 198.078 9.876C197.863 10.324 197.756 10.8653 197.756 11.5C197.756 12.1253 197.863 12.6667 198.078 13.124C198.302 13.5813 198.61 13.9313 199.002 14.174C199.394 14.4167 199.856 14.538 200.388 14.538C200.92 14.538 201.382 14.4167 201.774 14.174C202.166 13.9313 202.469 13.5813 202.684 13.124C202.908 12.6667 203.02 12.1253 203.02 11.5C203.02 10.8653 202.908 10.324 202.684 9.876C202.469 9.41867 202.166 9.06867 201.774 8.826C201.382 8.58333 200.92 8.462 200.388 8.462Z" fill="#1E1E1E"/>
<defs>
<clipPath id="clip0_3275_2214">
<rect width="14" height="14" fill="white" transform="translate(0 3.5)"/>
</clipPath>
</defs>
</svg>
