<svg width="14" height="15" viewBox="0 0 14 15" fill="none" xmlns="http://www.w3.org/2000/svg">
<g clip-path="url(#clip0_2965_26850)">
<path d="M5.23023 10.9993C5.16089 11.486 4.91828 11.9313 4.54696 12.2535C4.17565 12.5756 3.70057 12.753 3.20898 12.753C2.7174 12.753 2.24232 12.5756 1.87101 12.2535C1.49969 11.9313 1.25708 11.486 1.18773 10.9993H0.583984V3.99935C0.583984 3.84464 0.645443 3.69627 0.754839 3.58687C0.864235 3.47747 1.01261 3.41602 1.16732 3.41602H9.33399C9.48869 3.41602 9.63707 3.47747 9.74646 3.58687C9.85586 3.69627 9.91732 3.84464 9.91732 3.99935V5.16602H11.6673L13.4173 7.53202V10.9993H12.2302C12.1609 11.486 11.9183 11.9313 11.547 12.2535C11.1757 12.5756 10.7006 12.753 10.209 12.753C9.7174 12.753 9.24232 12.5756 8.87101 12.2535C8.49969 11.9313 8.25708 11.486 8.18773 10.9993H5.23023ZM8.75065 4.58268H1.75065V9.27852C1.98081 9.04355 2.26434 8.86766 2.57709 8.76583C2.88985 8.664 3.22257 8.63924 3.54695 8.69366C3.87134 8.74808 4.17777 8.88006 4.44017 9.07838C4.70258 9.27669 4.91318 9.53547 5.05407 9.83268H8.3639C8.4619 9.62677 8.59315 9.43952 8.75065 9.27852V4.58268ZM9.91732 8.08268H12.2507V7.91643L11.0793 6.33268H9.91732V8.08268ZM10.209 11.5827C10.4411 11.5827 10.6638 11.4905 10.8279 11.3263C10.9921 11.1622 11.0843 10.9395 11.0843 10.7074C11.0843 10.4752 10.9921 10.2526 10.8279 10.0885C10.6638 9.92432 10.4411 9.8321 10.209 9.8321C9.97684 9.8321 9.75421 9.92432 9.59006 10.0885C9.42591 10.2526 9.33369 10.4752 9.33369 10.7074C9.33369 10.9395 9.42591 11.1622 9.59006 11.3263C9.75421 11.4905 9.97684 11.5827 10.209 11.5827ZM4.08398 10.7077C4.08398 10.5928 4.06135 10.479 4.01738 10.3728C3.97341 10.2667 3.90895 10.1702 3.8277 10.089C3.74645 10.0077 3.64999 9.94326 3.54383 9.89929C3.43767 9.85532 3.32389 9.83268 3.20898 9.83268C3.09408 9.83268 2.9803 9.85532 2.87414 9.89929C2.76798 9.94326 2.67152 10.0077 2.59027 10.089C2.50901 10.1702 2.44456 10.2667 2.40059 10.3728C2.35662 10.479 2.33398 10.5928 2.33398 10.7077C2.33398 10.9397 2.42617 11.1623 2.59027 11.3264C2.75436 11.4905 2.97692 11.5827 3.20898 11.5827C3.44105 11.5827 3.66361 11.4905 3.8277 11.3264C3.9918 11.1623 4.08398 10.9397 4.08398 10.7077Z" fill="#1E1E1E"/>
</g>
<defs>
<clipPath id="clip0_2965_26850">
<rect width="14" height="14" fill="white" transform="translate(0 0.5)"/>
</clipPath>
</defs>
</svg>
