<svg width="14" height="15" viewBox="0 0 14 15" fill="none" xmlns="http://www.w3.org/2000/svg">
<g clip-path="url(#clip0_3218_1135)">
<path d="M9.88867 1.93359C9.91063 1.93369 9.93173 1.94248 9.94727 1.95801L12.835 4.8457C12.8504 4.8613 12.8594 4.88236 12.8594 4.9043C12.8594 4.92623 12.8504 4.9473 12.835 4.96289L4.17188 13.626C4.15628 13.6414 4.13522 13.6504 4.11328 13.6504C4.09134 13.6504 4.07028 13.6414 4.05469 13.626L1.16699 10.7383C1.15146 10.7227 1.14268 10.7016 1.14258 10.6797C1.14258 10.6576 1.15137 10.6357 1.16699 10.6201L9.8291 1.95801C9.84473 1.94239 9.86657 1.93359 9.88867 1.93359ZM9.53516 2.48828L8.29688 3.72559L7.94336 4.0791L8.29688 4.43359L8.76758 4.9043L8.64941 5.02148L7.8252 4.19727L7.47168 4.55078L6.23438 5.78906L5.88086 6.14258L6.23535 6.49609L7.11816 7.37891L7 7.49707L5.76367 6.26074L5.41016 6.61426L4.20117 7.82227V7.82129L3.34766 8.67578L1.34375 10.6797L1.69727 11.0332L3.75977 13.0947L4.11328 13.4482L12.6572 4.9043L12.3037 4.55078L10.2422 2.48828L9.88867 2.13477L9.53516 2.48828ZM4.64355 9.0293L4.52539 9.14746L4.20117 8.82227V8.58691L4.64355 9.0293Z" fill="#E968FE" stroke="#E968FE"/>
</g>
<defs>
<clipPath id="clip0_3218_1135">
<rect width="14" height="14" fill="white" transform="translate(0 0.5)"/>
</clipPath>
</defs>
</svg>
