<svg width="15" height="14" viewBox="0 0 15 14" fill="none" xmlns="http://www.w3.org/2000/svg">
<g clip-path="url(#clip0_3295_3233)">
<path d="M4.58268 2.33268V1.16602H10.416V2.33268H13.3327V3.49935H12.166V12.2493C12.166 12.4041 12.1046 12.5524 11.9952 12.6618C11.8858 12.7712 11.7374 12.8327 11.5827 12.8327H3.41602C3.26131 12.8327 3.11293 12.7712 3.00354 12.6618C2.89414 12.5524 2.83268 12.4041 2.83268 12.2493V3.49935H1.66602V2.33268H4.58268ZM3.99935 3.49935V11.666H10.9993V3.49935H3.99935ZM5.74935 5.24935H6.91602V9.91602H5.74935V5.24935ZM8.08268 5.24935H9.24935V9.91602H8.08268V5.24935Z" fill="#1E1E1E" fill-opacity="0.75"/>
</g>
<defs>
<clipPath id="clip0_3295_3233">
<rect width="14" height="14" fill="white" transform="translate(0.5)"/>
</clipPath>
</defs>
</svg>
