<svg width="157" height="20" viewBox="0 0 157 20" fill="none" xmlns="http://www.w3.org/2000/svg">
<g clip-path="url(#clip0_3275_2207)">
<path d="M6.99935 15.8327C3.7776 15.8327 1.16602 13.2211 1.16602 9.99935C1.16602 6.7776 3.7776 4.16602 6.99935 4.16602C10.2211 4.16602 12.8327 6.7776 12.8327 9.99935C12.8327 13.2211 10.2211 15.8327 6.99935 15.8327ZM6.41777 12.3327L10.5419 8.20793L9.7171 7.3831L6.41777 10.683L4.76752 9.03277L3.94268 9.8576L6.41777 12.3327Z" fill="#108043"/>
</g>
<path d="M26.138 11.829C25.9733 12.3057 25.7263 12.7173 25.397 13.064C25.0763 13.4107 24.6863 13.675 24.227 13.857C23.7763 14.039 23.2693 14.13 22.706 14.13C21.926 14.13 21.2413 13.9523 20.652 13.597C20.0713 13.233 19.6163 12.7217 19.287 12.063C18.9663 11.4043 18.806 10.62 18.806 9.71C18.806 8.8 18.9663 8.01567 19.287 7.357C19.6077 6.69833 20.0583 6.19133 20.639 5.836C21.2283 5.472 21.913 5.29 22.693 5.29C23.2737 5.29 23.7807 5.37233 24.214 5.537C24.656 5.693 25.0287 5.93133 25.332 6.252C25.6353 6.564 25.865 6.94967 26.021 7.409L25.384 7.708C25.1847 7.11 24.8683 6.65933 24.435 6.356C24.0017 6.044 23.434 5.888 22.732 5.888C22.0907 5.888 21.523 6.044 21.029 6.356C20.5437 6.65933 20.1667 7.097 19.898 7.669C19.6293 8.23233 19.495 8.91267 19.495 9.71C19.495 10.4987 19.625 11.179 19.885 11.751C20.1537 12.323 20.5307 12.765 21.016 13.077C21.5013 13.3803 22.0647 13.532 22.706 13.532C23.3993 13.532 23.9887 13.3673 24.474 13.038C24.9593 12.7 25.2973 12.2147 25.488 11.582L26.138 11.829ZM30.8318 7.37C31.4385 7.37 31.9715 7.50433 32.4308 7.773C32.8988 8.04167 33.2628 8.43167 33.5228 8.943C33.7915 9.44567 33.9258 10.048 33.9258 10.75C33.9258 11.452 33.7915 12.0587 33.5228 12.57C33.2628 13.0727 32.8988 13.4583 32.4308 13.727C31.9715 13.9957 31.4385 14.13 30.8318 14.13C30.2251 14.13 29.6878 13.9957 29.2198 13.727C28.7605 13.4583 28.3965 13.0727 28.1278 12.57C27.8678 12.0587 27.7378 11.452 27.7378 10.75C27.7378 10.048 27.8678 9.44567 28.1278 8.943C28.3965 8.43167 28.7605 8.04167 29.2198 7.773C29.6878 7.50433 30.2251 7.37 30.8318 7.37ZM30.8318 7.929C30.3378 7.929 29.9088 8.04167 29.5448 8.267C29.1808 8.49233 28.8948 8.81733 28.6868 9.242C28.4875 9.658 28.3878 10.1607 28.3878 10.75C28.3878 11.3307 28.4875 11.8333 28.6868 12.258C28.8948 12.6827 29.1808 13.0077 29.5448 13.233C29.9088 13.4583 30.3378 13.571 30.8318 13.571C31.3258 13.571 31.7548 13.4583 32.1188 13.233C32.4828 13.0077 32.7645 12.6827 32.9638 12.258C33.1718 11.8333 33.2758 11.3307 33.2758 10.75C33.2758 10.1607 33.1718 9.658 32.9638 9.242C32.7645 8.81733 32.4828 8.49233 32.1188 8.267C31.7548 8.04167 31.3258 7.929 30.8318 7.929ZM36.1743 14V7.5H36.7593L36.7983 8.852C36.989 8.384 37.2966 8.02 37.7213 7.76C38.1546 7.5 38.6356 7.37 39.1643 7.37C39.7276 7.37 40.213 7.50433 40.6203 7.773C41.0363 8.04167 41.3223 8.436 41.4783 8.956C41.591 8.62667 41.773 8.345 42.0243 8.111C42.2756 7.86833 42.5703 7.682 42.9083 7.552C43.2463 7.422 43.5973 7.357 43.9613 7.357C44.412 7.357 44.8193 7.448 45.1833 7.63C45.556 7.80333 45.8506 8.072 46.0673 8.436C46.2926 8.79133 46.4053 9.23767 46.4053 9.775V13.987H45.7553V9.84C45.7553 9.19867 45.582 8.722 45.2353 8.41C44.8973 8.08933 44.4466 7.929 43.8833 7.929C43.476 7.929 43.099 8.02867 42.7523 8.228C42.4056 8.41867 42.1283 8.69167 41.9203 9.047C41.721 9.39367 41.6213 9.79667 41.6213 10.256V14H40.9713V9.853C40.9713 9.21167 40.798 8.735 40.4513 8.423C40.1046 8.10233 39.654 7.942 39.0993 7.942C38.7093 7.942 38.341 8.03733 37.9943 8.228C37.6476 8.41867 37.366 8.69167 37.1493 9.047C36.9326 9.40233 36.8243 9.827 36.8243 10.321V14H36.1743ZM49.0438 16.73V7.5H49.6288L49.6808 9.307L49.5898 9.203C49.7025 8.83033 49.8758 8.50533 50.1098 8.228C50.3525 7.95067 50.6471 7.73833 50.9938 7.591C51.3405 7.44367 51.7175 7.37 52.1248 7.37C52.6795 7.37 53.1778 7.50433 53.6198 7.773C54.0618 8.04167 54.4128 8.42733 54.6728 8.93C54.9328 9.43267 55.0628 10.0393 55.0628 10.75C55.0628 11.452 54.9328 12.0587 54.6728 12.57C54.4128 13.0727 54.0575 13.4583 53.6068 13.727C53.1648 13.9957 52.6621 14.13 52.0988 14.13C51.5008 14.13 50.9808 13.974 50.5388 13.662C50.0968 13.3413 49.7891 12.9123 49.6158 12.375L49.6938 12.258V16.73H49.0438ZM52.0208 13.558C52.7575 13.558 53.3381 13.3067 53.7628 12.804C54.1961 12.3013 54.4128 11.6167 54.4128 10.75C54.4128 9.88333 54.2005 9.19867 53.7758 8.696C53.3511 8.19333 52.7748 7.942 52.0468 7.942C51.5875 7.942 51.1801 8.059 50.8248 8.293C50.4781 8.51833 50.2008 8.84333 49.9928 9.268C49.7935 9.684 49.6938 10.178 49.6938 10.75C49.6938 11.3133 49.7935 11.8073 49.9928 12.232C50.1921 12.6567 50.4651 12.986 50.8118 13.22C51.1671 13.4453 51.5701 13.558 52.0208 13.558ZM57.3303 14V7.5H57.8763L57.9543 8.852C58.1189 8.40133 58.3833 8.04167 58.7473 7.773C59.1113 7.50433 59.5489 7.37 60.0603 7.37C60.2336 7.37 60.3896 7.38733 60.5283 7.422C60.6669 7.45667 60.7839 7.513 60.8793 7.591L60.7233 8.163C60.6279 8.10233 60.5239 8.05467 60.4113 8.02C60.2986 7.98533 60.1296 7.968 59.9043 7.968C59.5749 7.968 59.2629 8.072 58.9683 8.28C58.6736 8.47933 58.4353 8.761 58.2533 9.125C58.0713 9.48033 57.9803 9.892 57.9803 10.36V14H57.3303ZM66.4463 9.723C66.4463 9.15967 66.2947 8.722 65.9913 8.41C65.688 8.098 65.2547 7.942 64.6913 7.942C64.1973 7.942 63.7727 8.05033 63.4173 8.267C63.062 8.475 62.7977 8.826 62.6243 9.32L62.0913 8.982C62.282 8.47067 62.5983 8.07633 63.0403 7.799C63.491 7.513 64.0457 7.37 64.7043 7.37C65.181 7.37 65.597 7.45667 65.9523 7.63C66.3163 7.79467 66.598 8.04167 66.7973 8.371C66.9967 8.70033 67.0963 9.112 67.0963 9.606V12.856C67.0963 13.3153 67.3043 13.545 67.7203 13.545C67.9023 13.545 68.0583 13.5147 68.1883 13.454L68.1493 13.974C68.002 14.052 67.8113 14.091 67.5773 14.091C67.378 14.091 67.1917 14.052 67.0183 13.974C66.845 13.896 66.702 13.766 66.5893 13.584C66.4853 13.402 66.4333 13.155 66.4333 12.843V12.492L66.6153 12.479C66.5373 12.8517 66.364 13.1637 66.0953 13.415C65.8353 13.6577 65.532 13.8397 65.1853 13.961C64.8387 14.0737 64.492 14.13 64.1453 14.13C63.738 14.13 63.374 14.065 63.0533 13.935C62.7327 13.805 62.4813 13.6187 62.2993 13.376C62.1173 13.1247 62.0263 12.817 62.0263 12.453C62.0263 11.9677 62.1867 11.5777 62.5073 11.283C62.8367 10.9797 63.296 10.7717 63.8853 10.659L66.5763 10.126V10.672L64.2103 11.14C63.699 11.244 63.3177 11.3957 63.0663 11.595C62.815 11.7943 62.6893 12.063 62.6893 12.401C62.6893 12.765 62.8237 13.051 63.0923 13.259C63.361 13.4583 63.7423 13.558 64.2363 13.558C64.4877 13.558 64.7433 13.5233 65.0033 13.454C65.2633 13.3847 65.5017 13.2763 65.7183 13.129C65.9437 12.973 66.1213 12.7823 66.2513 12.557C66.3813 12.323 66.4463 12.0413 66.4463 11.712V9.723ZM72.4519 14.13C71.8886 14.13 71.3816 13.9957 70.9309 13.727C70.4803 13.4583 70.1249 13.0727 69.8649 12.57C69.6136 12.0587 69.4879 11.452 69.4879 10.75C69.4879 10.0307 69.6223 9.41967 69.8909 8.917C70.1596 8.41433 70.5236 8.033 70.9829 7.773C71.4423 7.50433 71.9536 7.37 72.5169 7.37C73.1149 7.37 73.6263 7.53033 74.0509 7.851C74.4843 8.17167 74.7746 8.61367 74.9219 9.177L74.8439 9.242V4.51H75.4939V14H74.9089L74.8699 12.193L74.9479 12.167C74.8699 12.583 74.7096 12.9383 74.4669 13.233C74.2329 13.5277 73.9383 13.753 73.5829 13.909C73.2363 14.0563 72.8593 14.13 72.4519 14.13ZM72.5299 13.558C72.9893 13.558 73.3923 13.4453 73.7389 13.22C74.0856 12.986 74.3543 12.6523 74.5449 12.219C74.7443 11.7857 74.8439 11.2787 74.8439 10.698C74.8439 10.126 74.7443 9.63633 74.5449 9.229C74.3543 8.813 74.0856 8.49667 73.7389 8.28C73.4009 8.05467 73.0066 7.942 72.5559 7.942C71.8106 7.942 71.2213 8.19333 70.7879 8.696C70.3546 9.19867 70.1379 9.88333 70.1379 10.75C70.1379 11.6167 70.3503 12.3013 70.7749 12.804C71.2083 13.3067 71.7933 13.558 72.5299 13.558ZM80.8554 7.37C81.4621 7.37 81.9951 7.50433 82.4544 7.773C82.9224 8.04167 83.2864 8.43167 83.5464 8.943C83.8151 9.44567 83.9494 10.048 83.9494 10.75C83.9494 11.452 83.8151 12.0587 83.5464 12.57C83.2864 13.0727 82.9224 13.4583 82.4544 13.727C81.9951 13.9957 81.4621 14.13 80.8554 14.13C80.2487 14.13 79.7114 13.9957 79.2434 13.727C78.7841 13.4583 78.4201 13.0727 78.1514 12.57C77.8914 12.0587 77.7614 11.452 77.7614 10.75C77.7614 10.048 77.8914 9.44567 78.1514 8.943C78.4201 8.43167 78.7841 8.04167 79.2434 7.773C79.7114 7.50433 80.2487 7.37 80.8554 7.37ZM80.8554 7.929C80.3614 7.929 79.9324 8.04167 79.5684 8.267C79.2044 8.49233 78.9184 8.81733 78.7104 9.242C78.5111 9.658 78.4114 10.1607 78.4114 10.75C78.4114 11.3307 78.5111 11.8333 78.7104 12.258C78.9184 12.6827 79.2044 13.0077 79.5684 13.233C79.9324 13.4583 80.3614 13.571 80.8554 13.571C81.3494 13.571 81.7784 13.4583 82.1424 13.233C82.5064 13.0077 82.7881 12.6827 82.9874 12.258C83.1954 11.8333 83.2994 11.3307 83.2994 10.75C83.2994 10.1607 83.1954 9.658 82.9874 9.242C82.7881 8.81733 82.5064 8.49233 82.1424 8.267C81.7784 8.04167 81.3494 7.929 80.8554 7.929ZM86.1979 14V7.5H86.7439L86.8219 8.852C86.9866 8.40133 87.2509 8.04167 87.6149 7.773C87.9789 7.50433 88.4166 7.37 88.9279 7.37C89.1012 7.37 89.2572 7.38733 89.3959 7.422C89.5346 7.45667 89.6516 7.513 89.7469 7.591L89.5909 8.163C89.4956 8.10233 89.3916 8.05467 89.2789 8.02C89.1662 7.98533 88.9972 7.968 88.7719 7.968C88.4426 7.968 88.1306 8.072 87.8359 8.28C87.5412 8.47933 87.3029 8.761 87.1209 9.125C86.9389 9.48033 86.8479 9.892 86.8479 10.36V14H86.1979ZM99.7777 7.5H100.467L97.7497 14H97.0997L94.3827 7.5H95.1107L97.4377 13.324L99.7777 7.5ZM104.797 14.13C104.199 14.13 103.666 13.9957 103.198 13.727C102.73 13.4583 102.362 13.0727 102.093 12.57C101.833 12.0587 101.703 11.452 101.703 10.75C101.703 10.048 101.833 9.44567 102.093 8.943C102.362 8.43167 102.722 8.04167 103.172 7.773C103.632 7.50433 104.147 7.37 104.719 7.37C105.309 7.37 105.811 7.5 106.227 7.76C106.643 8.02 106.964 8.384 107.189 8.852C107.415 9.31133 107.527 9.84433 107.527 10.451C107.527 10.529 107.523 10.607 107.514 10.685C107.514 10.7543 107.51 10.8193 107.501 10.88H102.106V10.295H107.215L106.89 10.386C106.882 9.64067 106.682 9.047 106.292 8.605C105.911 8.163 105.382 7.942 104.706 7.942C104.238 7.942 103.827 8.05467 103.471 8.28C103.116 8.49667 102.839 8.81733 102.639 9.242C102.44 9.658 102.34 10.1607 102.34 10.75C102.34 11.3307 102.44 11.8333 102.639 12.258C102.847 12.6827 103.133 13.0077 103.497 13.233C103.87 13.4497 104.299 13.558 104.784 13.558C105.287 13.558 105.716 13.4497 106.071 13.233C106.435 13.0163 106.717 12.7173 106.916 12.336L107.436 12.635C107.28 12.947 107.072 13.2157 106.812 13.441C106.552 13.6577 106.253 13.8267 105.915 13.948C105.577 14.0693 105.205 14.13 104.797 14.13ZM109.772 14V7.5H110.318L110.396 8.852C110.56 8.40133 110.825 8.04167 111.189 7.773C111.553 7.50433 111.99 7.37 112.502 7.37C112.675 7.37 112.831 7.38733 112.97 7.422C113.108 7.45667 113.225 7.513 113.321 7.591L113.165 8.163C113.069 8.10233 112.965 8.05467 112.853 8.02C112.74 7.98533 112.571 7.968 112.346 7.968C112.016 7.968 111.704 8.072 111.41 8.28C111.115 8.47933 110.877 8.761 110.695 9.125C110.513 9.48033 110.422 9.892 110.422 10.36V14H109.772ZM115.4 6.239C115.235 6.239 115.101 6.19133 114.997 6.096C114.901 5.992 114.854 5.85767 114.854 5.693C114.854 5.52833 114.901 5.39833 114.997 5.303C115.101 5.199 115.235 5.147 115.4 5.147C115.564 5.147 115.694 5.199 115.79 5.303C115.894 5.39833 115.946 5.52833 115.946 5.693C115.946 5.85767 115.894 5.992 115.79 6.096C115.694 6.19133 115.564 6.239 115.4 6.239ZM115.725 7.5V14H115.075V7.5H115.725ZM120.814 4.445C121.057 4.445 121.265 4.47533 121.438 4.536C121.62 4.59667 121.763 4.68333 121.867 4.796L121.685 5.316C121.573 5.212 121.451 5.13833 121.321 5.095C121.191 5.05167 121.04 5.03 120.866 5.03C120.442 5.03 120.112 5.15133 119.878 5.394C119.644 5.63667 119.527 5.99633 119.527 6.473V7.5V7.734V14H118.877V6.408C118.877 6.11333 118.916 5.84467 118.994 5.602C119.081 5.35933 119.207 5.15567 119.371 4.991C119.536 4.81767 119.74 4.68333 119.982 4.588C120.225 4.49267 120.502 4.445 120.814 4.445ZM121.815 7.5V8.059H117.577V7.5H121.815ZM123.427 6.239C123.263 6.239 123.128 6.19133 123.024 6.096C122.929 5.992 122.881 5.85767 122.881 5.693C122.881 5.52833 122.929 5.39833 123.024 5.303C123.128 5.199 123.263 5.147 123.427 5.147C123.592 5.147 123.722 5.199 123.817 5.303C123.921 5.39833 123.973 5.52833 123.973 5.693C123.973 5.85767 123.921 5.992 123.817 6.096C123.722 6.19133 123.592 6.239 123.427 6.239ZM123.752 7.5V14H123.102V7.5H123.752ZM129.081 7.37C129.523 7.37 129.918 7.43933 130.264 7.578C130.611 7.71667 130.906 7.916 131.148 8.176C131.391 8.436 131.577 8.75233 131.707 9.125L131.096 9.411C130.958 8.943 130.715 8.58333 130.368 8.332C130.03 8.072 129.597 7.942 129.068 7.942C128.592 7.942 128.171 8.05467 127.807 8.28C127.443 8.49667 127.162 8.81733 126.962 9.242C126.763 9.658 126.663 10.1607 126.663 10.75C126.663 11.3307 126.763 11.8333 126.962 12.258C127.162 12.6827 127.439 13.0077 127.794 13.233C128.15 13.4497 128.57 13.558 129.055 13.558C129.419 13.558 129.749 13.4973 130.043 13.376C130.347 13.2547 130.594 13.077 130.784 12.843C130.984 12.609 131.114 12.3317 131.174 12.011L131.772 12.219C131.66 12.6177 131.473 12.96 131.213 13.246C130.962 13.532 130.654 13.753 130.29 13.909C129.926 14.0563 129.519 14.13 129.068 14.13C128.479 14.13 127.95 13.9957 127.482 13.727C127.023 13.4583 126.663 13.0727 126.403 12.57C126.143 12.0587 126.013 11.452 126.013 10.75C126.013 10.048 126.143 9.44567 126.403 8.943C126.672 8.43167 127.036 8.04167 127.495 7.773C127.963 7.50433 128.492 7.37 129.081 7.37ZM137.882 9.723C137.882 9.15967 137.73 8.722 137.427 8.41C137.124 8.098 136.69 7.942 136.127 7.942C135.633 7.942 135.208 8.05033 134.853 8.267C134.498 8.475 134.233 8.826 134.06 9.32L133.527 8.982C133.718 8.47067 134.034 8.07633 134.476 7.799C134.927 7.513 135.481 7.37 136.14 7.37C136.617 7.37 137.033 7.45667 137.388 7.63C137.752 7.79467 138.034 8.04167 138.233 8.371C138.432 8.70033 138.532 9.112 138.532 9.606V12.856C138.532 13.3153 138.74 13.545 139.156 13.545C139.338 13.545 139.494 13.5147 139.624 13.454L139.585 13.974C139.438 14.052 139.247 14.091 139.013 14.091C138.814 14.091 138.627 14.052 138.454 13.974C138.281 13.896 138.138 13.766 138.025 13.584C137.921 13.402 137.869 13.155 137.869 12.843V12.492L138.051 12.479C137.973 12.8517 137.8 13.1637 137.531 13.415C137.271 13.6577 136.968 13.8397 136.621 13.961C136.274 14.0737 135.928 14.13 135.581 14.13C135.174 14.13 134.81 14.065 134.489 13.935C134.168 13.805 133.917 13.6187 133.735 13.376C133.553 13.1247 133.462 12.817 133.462 12.453C133.462 11.9677 133.622 11.5777 133.943 11.283C134.272 10.9797 134.732 10.7717 135.321 10.659L138.012 10.126V10.672L135.646 11.14C135.135 11.244 134.753 11.3957 134.502 11.595C134.251 11.7943 134.125 12.063 134.125 12.401C134.125 12.765 134.259 13.051 134.528 13.259C134.797 13.4583 135.178 13.558 135.672 13.558C135.923 13.558 136.179 13.5233 136.439 13.454C136.699 13.3847 136.937 13.2763 137.154 13.129C137.379 12.973 137.557 12.7823 137.687 12.557C137.817 12.323 137.882 12.0413 137.882 11.712V9.723ZM143.887 14.13C143.324 14.13 142.817 13.9957 142.366 13.727C141.916 13.4583 141.56 13.0727 141.3 12.57C141.049 12.0587 140.923 11.452 140.923 10.75C140.923 10.0307 141.058 9.41967 141.326 8.917C141.595 8.41433 141.959 8.033 142.418 7.773C142.878 7.50433 143.389 7.37 143.952 7.37C144.55 7.37 145.062 7.53033 145.486 7.851C145.92 8.17167 146.21 8.61367 146.357 9.177L146.279 9.242V4.51H146.929V14H146.344L146.305 12.193L146.383 12.167C146.305 12.583 146.145 12.9383 145.902 13.233C145.668 13.5277 145.374 13.753 145.018 13.909C144.672 14.0563 144.295 14.13 143.887 14.13ZM143.965 13.558C144.425 13.558 144.828 13.4453 145.174 13.22C145.521 12.986 145.79 12.6523 145.98 12.219C146.18 11.7857 146.279 11.2787 146.279 10.698C146.279 10.126 146.18 9.63633 145.98 9.229C145.79 8.813 145.521 8.49667 145.174 8.28C144.836 8.05467 144.442 7.942 143.991 7.942C143.246 7.942 142.657 8.19333 142.223 8.696C141.79 9.19867 141.573 9.88333 141.573 10.75C141.573 11.6167 141.786 12.3013 142.21 12.804C142.644 13.3067 143.229 13.558 143.965 13.558ZM152.291 7.37C152.898 7.37 153.431 7.50433 153.89 7.773C154.358 8.04167 154.722 8.43167 154.982 8.943C155.251 9.44567 155.385 10.048 155.385 10.75C155.385 11.452 155.251 12.0587 154.982 12.57C154.722 13.0727 154.358 13.4583 153.89 13.727C153.431 13.9957 152.898 14.13 152.291 14.13C151.684 14.13 151.147 13.9957 150.679 13.727C150.22 13.4583 149.856 13.0727 149.587 12.57C149.327 12.0587 149.197 11.452 149.197 10.75C149.197 10.048 149.327 9.44567 149.587 8.943C149.856 8.43167 150.22 8.04167 150.679 7.773C151.147 7.50433 151.684 7.37 152.291 7.37ZM152.291 7.929C151.797 7.929 151.368 8.04167 151.004 8.267C150.64 8.49233 150.354 8.81733 150.146 9.242C149.947 9.658 149.847 10.1607 149.847 10.75C149.847 11.3307 149.947 11.8333 150.146 12.258C150.354 12.6827 150.64 13.0077 151.004 13.233C151.368 13.4583 151.797 13.571 152.291 13.571C152.785 13.571 153.214 13.4583 153.578 13.233C153.942 13.0077 154.224 12.6827 154.423 12.258C154.631 11.8333 154.735 11.3307 154.735 10.75C154.735 10.1607 154.631 9.658 154.423 9.242C154.224 8.81733 153.942 8.49233 153.578 8.267C153.214 8.04167 152.785 7.929 152.291 7.929Z" fill="#1E1E1E"/>
<defs>
<clipPath id="clip0_3275_2207">
<rect width="14" height="14" fill="white" transform="translate(0 3)"/>
</clipPath>
</defs>
</svg>
