<svg width="20" height="20" viewBox="0 0 20 20" fill="none" xmlns="http://www.w3.org/2000/svg">
<g clip-path="url(#clip0_2966_16315)">
<path d="M13.7503 2.5C16.282 2.5 18.3337 4.58333 18.3337 7.5C18.3337 13.3333 12.0837 16.6667 10.0003 17.9167C7.91699 16.6667 1.66699 13.3333 1.66699 7.5C1.66699 4.58333 3.75033 2.5 6.25033 2.5C7.80033 2.5 9.16699 3.33333 10.0003 4.16667C10.8337 3.33333 12.2003 2.5 13.7503 2.5ZM10.7787 15.5033C11.5128 15.04 12.1753 14.5792 12.7953 14.0858C15.2795 12.1108 16.667 9.9525 16.667 7.5C16.667 5.53333 15.3862 4.16667 13.7503 4.16667C12.8537 4.16667 11.8837 4.64167 11.1787 5.345L10.0003 6.52333L8.82199 5.345C8.11699 4.64167 7.14699 4.16667 6.25033 4.16667C4.63366 4.16667 3.33366 5.54667 3.33366 7.5C3.33366 9.95333 4.72199 12.1108 7.20449 14.0858C7.82533 14.5792 8.48783 15.04 9.22199 15.5025C9.47116 15.66 9.71783 15.8108 10.0003 15.9792C10.2828 15.8108 10.5295 15.66 10.7787 15.5033Z" fill="#1E1E1E"/>
</g>
<defs>
<clipPath id="clip0_2966_16315">
<rect width="20" height="20" fill="white"/>
</clipPath>
</defs>
</svg>
