<svg width="46" height="46" viewBox="0 0 46 46" fill="none" xmlns="http://www.w3.org/2000/svg">
<rect x="0.25" y="0.25" width="45.5" height="45.5" fill="#F4F4F5" fill-opacity="0.8"/>
<rect x="0.25" y="0.25" width="45.5" height="45.5" stroke="#E0E0E0" stroke-width="0.5"/>
<path d="M28.6875 27.7031L25.2947 24.3098C25.8415 23.5584 26.1356 22.6528 26.1347 21.7236C26.1347 19.2914 24.1558 17.3125 21.7236 17.3125C19.2914 17.3125 17.3125 19.2914 17.3125 21.7236C17.3125 24.1558 19.2914 26.1347 21.7236 26.1347C22.6528 26.1356 23.5584 25.8415 24.3098 25.2947L27.7031 28.6875L28.6875 27.7031ZM21.7236 24.7415C21.1266 24.7416 20.543 24.5646 20.0467 24.233C19.5503 23.9014 19.1634 23.43 18.9349 22.8785C18.7064 22.3269 18.6466 21.7201 18.7631 21.1346C18.8795 20.5491 19.167 20.0112 19.5891 19.5891C20.0112 19.167 20.5491 18.8795 21.1346 18.7631C21.7201 18.6466 22.3269 18.7064 22.8785 18.9349C23.43 19.1634 23.9014 19.5503 24.233 20.0467C24.5646 20.543 24.7416 21.1266 24.7415 21.7236C24.7406 22.5237 24.4223 23.2908 23.8566 23.8566C23.2908 24.4223 22.5237 24.7406 21.7236 24.7415Z" fill="#1E1E1E"/>
</svg>
